<svg id="Layer_1" data-name="Layer 1" xmlns="http://www.w3.org/2000/svg" viewBox="0 0 1800 516"><defs><style>.cls-1{fill:#7c60e3}</style></defs><path class="cls-1" d="M497 270a12 12 0 0 0 12-12A252 252 0 0 0 78.81 79.81 250.35 250.35 0 0 0 5 258a12 12 0 0 0 12 12zm-371.49-24c5.84-67.15 62.36-120 131-120s125.13 52.84 131 120zm286.07 0c-5.9-80.39-73.2-144-155.08-144s-149.17 63.61-155.08 144H29.31A228 228 0 0 1 418.22 96.78 226.36 226.36 0 0 1 484.69 246zM480.94 338.55l-98.59-19.72a12 12 0 0 0-12.67 5.64 131.5 131.5 0 0 1-226.26.17 12 12 0 0 0-12.67-5.64l-97.7 19.54a12 12 0 0 0-8.72 16.39 252.08 252.08 0 0 0 465.33 0 12 12 0 0 0-8.72-16.39zm-96 108.2A228.08 228.08 0 0 1 52.6 359.12l74.79-15a155.48 155.48 0 0 0 258.35-.12l75.67 15.13a228.1 228.1 0 0 1-76.49 87.62zM1036.59 321.59c-14.63 49.74-60.27 91.28-131.07 91.28-79 0-148.63-56.76-148.63-153.89 0-91.87 67.88-151.55 141.61-151.55 88.94 0 142.19 56.76 142.19 149.21 0 11.12-1.17 22.82-1.17 24h-206c1.76 38 33.94 65.54 72.56 65.54 36.28 0 56.17-18.14 65.54-43.89zM964 227.38c-1.17-28.67-19.9-56.76-64.37-56.76-40.37 0-62.61 30.43-64.37 56.76zM1162.13 404.1h-77.82V116.21h75.48v35.69c17.55-29.84 52.08-43.3 83.09-43.3 71.39 0 104.16 50.91 104.16 114.1v181.4h-77.82V236.16c0-32.18-15.8-57.34-53.25-57.34-33.94 0-53.83 26.33-53.83 59.68zM1507.77 116.21h57.93v69h-57.93v120.58c0 25.16 11.7 33.35 33.94 33.35 9.36 0 19.89-1.17 24-2.34v64.37c-7 2.93-21.07 7-43.89 7-56.17 0-91.28-33.35-91.28-88.94v-134h-52.08v-69h14.63c30.43 0 44.47-19.9 44.47-45.64v-40.4h70.22zM1793.67 193.45a117.16 117.16 0 0 0-23.41-2.34c-39.79 0-74.31 19.31-74.31 81.33V404.1h-77.82V116.21h75.48v42.71c17.55-38 57.34-45.06 81.92-45.06a177.27 177.27 0 0 1 18.14 1.17z"/></svg>